<mxfile host="Electron" modified="2024-06-17T15:57:24.512Z" agent="Mozilla/5.0 (Macintosh; Intel Mac OS X 10_15_7) AppleWebKit/537.36 (KHTML, like Gecko) draw.io/24.4.8 Chrome/124.0.6367.207 Electron/30.0.6 Safari/537.36" etag="mKUzNPYapW_A4m5C455N" version="24.4.8" type="device">
  <diagram name="Page-1" id="kp7SztyyEfY8Jr7AWHgK">
    <mxGraphModel dx="318" dy="136" grid="1" gridSize="1" guides="1" tooltips="1" connect="1" arrows="1" fold="1" page="1" pageScale="1" pageWidth="1100" pageHeight="850" math="0" shadow="0">
      <root>
        <mxCell id="0" />
        <mxCell id="1" parent="0" />
        <mxCell id="eiYEFk5KvPPeJzLQ_Iwo-14" value="" style="rounded=0;whiteSpace=wrap;html=1;fillColor=none;strokeColor=#B3B3B3;" vertex="1" parent="1">
          <mxGeometry x="40" y="40" width="120" height="120" as="geometry" />
        </mxCell>
        <mxCell id="eiYEFk5KvPPeJzLQ_Iwo-4" value="" style="endArrow=none;html=1;rounded=0;strokeColor=#B3B3B3;" edge="1" parent="1">
          <mxGeometry width="50" height="50" relative="1" as="geometry">
            <mxPoint x="60" y="160" as="sourcePoint" />
            <mxPoint x="60" y="40" as="targetPoint" />
          </mxGeometry>
        </mxCell>
        <mxCell id="eiYEFk5KvPPeJzLQ_Iwo-5" value="" style="endArrow=none;html=1;rounded=0;strokeColor=#B3B3B3;" edge="1" parent="1">
          <mxGeometry width="50" height="50" relative="1" as="geometry">
            <mxPoint x="80" y="160" as="sourcePoint" />
            <mxPoint x="80" y="40" as="targetPoint" />
          </mxGeometry>
        </mxCell>
        <mxCell id="eiYEFk5KvPPeJzLQ_Iwo-6" value="" style="endArrow=none;html=1;rounded=0;strokeColor=#B3B3B3;" edge="1" parent="1">
          <mxGeometry width="50" height="50" relative="1" as="geometry">
            <mxPoint x="100" y="160" as="sourcePoint" />
            <mxPoint x="100" y="40" as="targetPoint" />
          </mxGeometry>
        </mxCell>
        <mxCell id="eiYEFk5KvPPeJzLQ_Iwo-7" value="" style="endArrow=none;html=1;rounded=0;strokeColor=#B3B3B3;" edge="1" parent="1">
          <mxGeometry width="50" height="50" relative="1" as="geometry">
            <mxPoint x="120" y="160" as="sourcePoint" />
            <mxPoint x="120" y="40" as="targetPoint" />
          </mxGeometry>
        </mxCell>
        <mxCell id="eiYEFk5KvPPeJzLQ_Iwo-8" value="" style="endArrow=none;html=1;rounded=0;strokeColor=#B3B3B3;" edge="1" parent="1">
          <mxGeometry width="50" height="50" relative="1" as="geometry">
            <mxPoint x="140" y="160" as="sourcePoint" />
            <mxPoint x="140" y="40" as="targetPoint" />
          </mxGeometry>
        </mxCell>
        <mxCell id="eiYEFk5KvPPeJzLQ_Iwo-9" value="" style="endArrow=none;html=1;rounded=0;strokeColor=#B3B3B3;" edge="1" parent="1">
          <mxGeometry width="50" height="50" relative="1" as="geometry">
            <mxPoint x="160" y="140" as="sourcePoint" />
            <mxPoint x="40" y="140" as="targetPoint" />
          </mxGeometry>
        </mxCell>
        <mxCell id="eiYEFk5KvPPeJzLQ_Iwo-10" value="" style="endArrow=none;html=1;rounded=0;strokeColor=#B3B3B3;" edge="1" parent="1">
          <mxGeometry width="50" height="50" relative="1" as="geometry">
            <mxPoint x="160" y="120" as="sourcePoint" />
            <mxPoint x="40" y="120" as="targetPoint" />
          </mxGeometry>
        </mxCell>
        <mxCell id="eiYEFk5KvPPeJzLQ_Iwo-11" value="" style="endArrow=none;html=1;rounded=0;strokeColor=#B3B3B3;" edge="1" parent="1">
          <mxGeometry width="50" height="50" relative="1" as="geometry">
            <mxPoint x="160" y="100" as="sourcePoint" />
            <mxPoint x="40" y="100" as="targetPoint" />
          </mxGeometry>
        </mxCell>
        <mxCell id="eiYEFk5KvPPeJzLQ_Iwo-12" value="" style="endArrow=none;html=1;rounded=0;strokeColor=#B3B3B3;" edge="1" parent="1">
          <mxGeometry width="50" height="50" relative="1" as="geometry">
            <mxPoint x="160" y="80" as="sourcePoint" />
            <mxPoint x="40" y="80" as="targetPoint" />
          </mxGeometry>
        </mxCell>
        <mxCell id="eiYEFk5KvPPeJzLQ_Iwo-13" value="" style="endArrow=none;html=1;rounded=0;strokeColor=#B3B3B3;" edge="1" parent="1">
          <mxGeometry width="50" height="50" relative="1" as="geometry">
            <mxPoint x="160" y="60" as="sourcePoint" />
            <mxPoint x="40" y="60" as="targetPoint" />
          </mxGeometry>
        </mxCell>
        <mxCell id="eiYEFk5KvPPeJzLQ_Iwo-15" value="" style="rounded=0;whiteSpace=wrap;html=1;fillColor=none;" vertex="1" parent="1">
          <mxGeometry x="80" y="80" width="40" height="40" as="geometry" />
        </mxCell>
        <mxCell id="eiYEFk5KvPPeJzLQ_Iwo-16" value="" style="ellipse;whiteSpace=wrap;html=1;aspect=fixed;fillColor=none;strokeColor=#FF8000;" vertex="1" parent="1">
          <mxGeometry x="55" y="55" width="10" height="10" as="geometry" />
        </mxCell>
        <mxCell id="eiYEFk5KvPPeJzLQ_Iwo-17" value="" style="ellipse;whiteSpace=wrap;html=1;aspect=fixed;fillColor=none;strokeColor=#FF8000;" vertex="1" parent="1">
          <mxGeometry x="135" y="55" width="10" height="10" as="geometry" />
        </mxCell>
        <mxCell id="eiYEFk5KvPPeJzLQ_Iwo-20" value="" style="ellipse;whiteSpace=wrap;html=1;aspect=fixed;fillColor=none;strokeColor=#FF8000;" vertex="1" parent="1">
          <mxGeometry x="135" y="135" width="10" height="10" as="geometry" />
        </mxCell>
        <mxCell id="eiYEFk5KvPPeJzLQ_Iwo-21" value="" style="ellipse;whiteSpace=wrap;html=1;aspect=fixed;fillColor=none;strokeColor=#FF8000;" vertex="1" parent="1">
          <mxGeometry x="55" y="135" width="10" height="10" as="geometry" />
        </mxCell>
        <mxCell id="eiYEFk5KvPPeJzLQ_Iwo-23" value="" style="ellipse;whiteSpace=wrap;html=1;aspect=fixed;fillColor=none;strokeColor=#1303FF;" vertex="1" parent="1">
          <mxGeometry x="75" y="75" width="10" height="10" as="geometry" />
        </mxCell>
        <mxCell id="eiYEFk5KvPPeJzLQ_Iwo-24" value="" style="ellipse;whiteSpace=wrap;html=1;aspect=fixed;fillColor=none;strokeColor=#1303FF;" vertex="1" parent="1">
          <mxGeometry x="115" y="75" width="10" height="10" as="geometry" />
        </mxCell>
        <mxCell id="eiYEFk5KvPPeJzLQ_Iwo-25" value="" style="ellipse;whiteSpace=wrap;html=1;aspect=fixed;fillColor=none;strokeColor=#1303FF;" vertex="1" parent="1">
          <mxGeometry x="115" y="115" width="10" height="10" as="geometry" />
        </mxCell>
        <mxCell id="eiYEFk5KvPPeJzLQ_Iwo-26" value="" style="ellipse;whiteSpace=wrap;html=1;aspect=fixed;fillColor=none;strokeColor=#1303FF;" vertex="1" parent="1">
          <mxGeometry x="75" y="115" width="10" height="10" as="geometry" />
        </mxCell>
        <mxCell id="eiYEFk5KvPPeJzLQ_Iwo-27" value="" style="ellipse;whiteSpace=wrap;html=1;aspect=fixed;fillColor=none;strokeColor=#FF8000;" vertex="1" parent="1">
          <mxGeometry x="94" y="55" width="10" height="10" as="geometry" />
        </mxCell>
        <mxCell id="eiYEFk5KvPPeJzLQ_Iwo-28" value="" style="ellipse;whiteSpace=wrap;html=1;aspect=fixed;fillColor=none;strokeColor=#FF8000;" vertex="1" parent="1">
          <mxGeometry x="96" y="55" width="10" height="10" as="geometry" />
        </mxCell>
        <mxCell id="eiYEFk5KvPPeJzLQ_Iwo-29" value="" style="ellipse;whiteSpace=wrap;html=1;aspect=fixed;fillColor=none;strokeColor=#FF8000;" vertex="1" parent="1">
          <mxGeometry x="55" y="94" width="10" height="10" as="geometry" />
        </mxCell>
        <mxCell id="eiYEFk5KvPPeJzLQ_Iwo-30" value="" style="ellipse;whiteSpace=wrap;html=1;aspect=fixed;fillColor=none;strokeColor=#FF8000;" vertex="1" parent="1">
          <mxGeometry x="55" y="96" width="10" height="10" as="geometry" />
        </mxCell>
        <mxCell id="eiYEFk5KvPPeJzLQ_Iwo-31" value="" style="ellipse;whiteSpace=wrap;html=1;aspect=fixed;fillColor=none;strokeColor=#FF8000;" vertex="1" parent="1">
          <mxGeometry x="135" y="96" width="10" height="10" as="geometry" />
        </mxCell>
        <mxCell id="eiYEFk5KvPPeJzLQ_Iwo-32" value="" style="ellipse;whiteSpace=wrap;html=1;aspect=fixed;fillColor=none;strokeColor=#FF8000;" vertex="1" parent="1">
          <mxGeometry x="135" y="94" width="10" height="10" as="geometry" />
        </mxCell>
        <mxCell id="eiYEFk5KvPPeJzLQ_Iwo-33" value="" style="ellipse;whiteSpace=wrap;html=1;aspect=fixed;fillColor=none;strokeColor=#FF8000;" vertex="1" parent="1">
          <mxGeometry x="94" y="135" width="10" height="10" as="geometry" />
        </mxCell>
        <mxCell id="eiYEFk5KvPPeJzLQ_Iwo-34" value="" style="ellipse;whiteSpace=wrap;html=1;aspect=fixed;fillColor=none;strokeColor=#FF8000;" vertex="1" parent="1">
          <mxGeometry x="96" y="135" width="10" height="10" as="geometry" />
        </mxCell>
        <mxCell id="eiYEFk5KvPPeJzLQ_Iwo-35" value="" style="ellipse;whiteSpace=wrap;html=1;aspect=fixed;fillColor=none;strokeColor=#FF8000;" vertex="1" parent="1">
          <mxGeometry x="93" y="95" width="10" height="10" as="geometry" />
        </mxCell>
        <mxCell id="eiYEFk5KvPPeJzLQ_Iwo-36" value="" style="ellipse;whiteSpace=wrap;html=1;aspect=fixed;fillColor=none;strokeColor=#FF8000;" vertex="1" parent="1">
          <mxGeometry x="97" y="95" width="10" height="10" as="geometry" />
        </mxCell>
        <mxCell id="eiYEFk5KvPPeJzLQ_Iwo-37" value="" style="ellipse;whiteSpace=wrap;html=1;aspect=fixed;fillColor=none;strokeColor=#FF8000;" vertex="1" parent="1">
          <mxGeometry x="95" y="93" width="10" height="10" as="geometry" />
        </mxCell>
        <mxCell id="eiYEFk5KvPPeJzLQ_Iwo-38" value="" style="ellipse;whiteSpace=wrap;html=1;aspect=fixed;fillColor=none;strokeColor=#FF8000;" vertex="1" parent="1">
          <mxGeometry x="95" y="97" width="10" height="10" as="geometry" />
        </mxCell>
        <mxCell id="eiYEFk5KvPPeJzLQ_Iwo-39" value="&lt;font color=&quot;#1303ff&quot;&gt;0.5&lt;/font&gt; + 4 * &lt;font color=&quot;#ff8000&quot;&gt;0.125&lt;/font&gt; = 1" style="text;html=1;align=center;verticalAlign=middle;whiteSpace=wrap;rounded=0;" vertex="1" parent="1">
          <mxGeometry x="40" y="20" width="120" height="20" as="geometry" />
        </mxCell>
      </root>
    </mxGraphModel>
  </diagram>
</mxfile>
